# xmcd
#
# Track frame offsets: 
#        150
#        14769
#        29312
#        43909
#        71412
#
# Disc length: 1597 seconds
#
# Revision: 5
# Processed by: cddbd v1.5.2PL0 Copyright (c) Steve Scherf et al.
# Submitted via: ExactAudioCopy v0.99pb4
#
DISCID=40063b05
DTITLE=Mark Medlock - Now Or Never (Single)
DYEAR=2007
DGENRE=Pop
TTITLE0=Now Or Never
TTITLE1=Now Or Never (Acoustic Version)
TTITLE2=Now Or Never (Instrumental Version)
TTITLE3=Only A Fool
TTITLE4=Daten - CD
EXTD=
EXTT0=
EXTT1=
EXTT2=
EXTT3=
EXTT4=Video-Portait von Mark
PLAYORDER=
